Coordinates
version=1
nRows=10
nColumns=40
inDegrees=yes

Units are S.I. units (second, meters, Newtons, ...)
Angles are in degrees.

endheader
time	pelvis_tilt	pelvis_list	pelvis_rotation	pelvis_tx	pelvis_ty	pelvis_tz	hip_flexion_r	hip_adduction_r	hip_rotation_r	knee_angle_r	knee_angle_r_beta	ankle_angle_r	subtalar_angle_r	mtp_angle_r	hip_flexion_l	hip_adduction_l	hip_rotation_l	knee_angle_l	knee_angle_l_beta	ankle_angle_l	subtalar_angle_l	mtp_angle_l	lumbar_extension	lumbar_bending	lumbar_rotation	arm_flex_r	arm_add_r	arm_rot_r	elbow_flex_r	pro_sup_r	wrist_flex_r	wrist_dev_r	arm_flex_l	arm_add_l	arm_rot_l	elbow_flex_l	pro_sup_l	wrist_flex_l	wrist_dev_l
     42.33592857	     -3.85627522	     -3.35965632	     11.04332554	      1.00943022	      0.91795432	      0.52739432	      5.71554207	      3.71138678	    -12.11606112	     20.50429646	     20.50429646	     20.33670706	     -6.33383665	     -1.51845078	     29.18079621	     -5.77622740	      4.42597440	     20.31724321	     20.31724321	      2.01774614	     -5.03734157	      0.47208787	     -9.97149551	      4.31199793	      2.98313766	     54.89773286	    -11.90175204	      6.23859406	    106.51389508	     43.90503943	      0.00000000	      0.00000000	    -16.91924162	    -10.30051462	     18.59174678	     31.42267928	     43.94577987	      0.00000000	      0.00000000
     42.35685714	     -3.99441847	     -3.42663149	     11.09612294	      1.01176316	      0.91691195	      0.52482142	      5.41257640	      3.67591588	    -12.06268035	     20.55362369	     20.55362369	     20.65747808	     -6.39350822	     -1.60299663	     28.89551481	     -5.69291313	      4.48370258	     20.52178334	     20.52178334	      2.07293497	     -5.10047586	      0.37254466	     -9.73956316	      4.20935981	      2.93897144	     54.93483716	    -11.63581610	      6.34297852	    106.71116644	     43.89776880	      0.00000000	      0.00000000	    -16.63682844	    -10.41173231	     18.58886602	     31.46727657	     43.95292147	      0.00000000	      0.00000000
     42.37778571	     -4.04548949	     -3.47068144	     11.12878626	      1.01407238	      0.91609765	      0.52198874	      5.05349200	      3.57950983	    -12.09765385	     20.70701408	     20.70701408	     21.04417003	     -6.26259248	     -1.21803569	     28.64490852	     -5.54214439	      4.74129018	     20.92059151	     20.92059151	      1.71431207	     -5.76388575	     -0.84109584	     -9.80149667	      4.11872647	      3.01588893	     54.60426607	    -11.42348193	      6.43644529	    108.67093675	     43.90389493	      0.00000000	      0.00000000	    -16.12326105	    -10.58644571	     19.11970608	     31.36507170	     43.98446008	      0.00000000	      0.00000000
     42.39871429	     -4.15189233	     -3.50446238	     11.15198060	      1.01638140	      0.91552495	      0.51885416	      4.66228814	      3.46604428	    -12.07562883	     20.66822459	     20.66822459	     21.20236930	     -6.19499276	     -1.19673531	     28.54532655	     -5.36972721	      4.92515728	     21.49577031	     21.49577031	      1.93290690	     -6.06133010	     -1.05703656	     -9.73197562	      4.06360553	      2.90113221	     54.39179536	    -11.11895252	      6.57790730	    109.06828942	     43.89672076	      0.00000000	      0.00000000	    -15.79297130	    -10.73538083	     19.16062359	     31.44211135	     43.99755518	      0.00000000	      0.00000000
     42.41964286	     -4.31020771	     -3.47370760	     11.12540743	      1.01867361	      0.91523069	      0.51553762	      4.27952242	      3.25768231	    -12.05603983	     20.56271464	     20.56271464	     21.27280742	     -6.13717019	     -1.16179984	     28.46896487	     -5.13029517	      5.02288027	     22.02071767	     22.02071767	      2.22098018	     -6.34231705	     -1.24435864	     -9.66743966	      3.90475317	      2.86505064	     54.11839850	    -10.92927917	      6.70024691	    109.21653187	     43.89084496	      0.00000000	      0.00000000	    -15.33824530	    -10.90145990	     19.13129792	     31.58717440	     44.01264031	      0.00000000	      0.00000000
     42.44057143	     -4.45708737	     -3.47976213	     11.03068111	      1.02098480	      0.91515674	      0.51207019	      3.84671279	      3.07385277	    -12.02940220	     20.36837629	     20.36837629	     21.27258557	     -5.92063718	     -1.10445696	     28.47645422	     -4.92065033	      5.16847766	     22.71157913	     22.71157913	      2.62819070	     -6.79751693	     -1.43271596	     -9.62940298	      3.84560180	      2.89847343	     53.74852696	    -10.79880198	      6.80160370	    109.37351173	     43.88561016	      0.00000000	      0.00000000	    -14.92682215	    -11.04666700	     19.09403118	     31.78989106	     44.02880307	      0.00000000	      0.00000000
     42.46150000	     -4.61423333	     -3.58173145	     10.89585824	      1.02325643	      0.91531870	      0.50844020	      3.35722730	      2.91294766	    -12.35137403	     20.02011854	     20.02011854	     21.24076856	     -5.01793682	     -1.03603660	     28.52252256	     -4.73666003	      5.57706824	     23.42296517	     23.42296517	      3.28139513	     -7.59536310	     -0.83313594	     -9.61939324	      3.90208871	      3.28650664	     53.19125182	    -11.21424070	      6.59271226	    110.05483938	     43.90109611	      0.00000000	      0.00000000	    -14.60844978	    -11.34075029	     19.06692889	     32.75075686	     44.07646233	      0.00000000	      0.00000000
     42.48242857	     -4.88535768	     -3.62027859	     10.67516388	      1.02547475	      0.91560667	      0.50478127	      3.17452634	      2.69100158	    -12.23527237	     19.99681167	     19.99681167	     21.02983673	     -4.91011208	     -0.96040842	     28.39666900	     -4.59302702	      5.55188595	     23.59642903	     23.59642903	      3.70763776	     -7.78688103	     -0.99300573	     -9.48967091	      3.93932090	      3.20415724	     53.09450294	    -11.19194160	      6.61497691	    110.01913661	     43.90191301	      0.00000000	      0.00000000	    -14.34283404	    -11.40250064	     19.04368528	     32.85379577	     44.08417280	      0.00000000	      0.00000000
     42.50335714	     -5.01741753	     -3.70180085	     10.35106778	      1.02785434	      0.91602475	      0.50118779	      2.57390503	      2.53123645	    -12.35720765	     19.46748820	     19.46748820	     20.86564061	     -4.01830722	     -0.97503547	     28.52071277	     -4.46648376	      5.73935437	     24.57804359	     24.57804359	      4.37815385	     -8.67542647	     -0.63367381	     -9.44618950	      3.95597788	      3.77778215	     52.49615378	    -11.45646699	      6.56305297	    109.11157305	     43.94493577	      0.00000000	      0.00000000	    -13.81843549	    -11.69121292	     18.90361988	     33.83914973	     44.12930003	      0.00000000	      0.00000000
     42.52428571	     -5.24380824	     -3.68286240	      9.95466624	      1.03006877	      0.91659076	      0.49758509	      2.28965814	      2.17059194	    -12.46375899	     19.34581293	     19.34581293	     20.54571543	     -3.21506935	     -1.43092383	     28.48839080	     -4.29048687	      5.66947859	     25.15297181	     25.15297181	      5.49972755	     -8.99351787	      1.17683656	     -9.38845076	      3.88378580	      3.63039039	     52.31746235	    -11.11607810	      6.71981655	    107.90184111	     44.04232109	      0.00000000	      0.00000000	    -14.13181155	    -12.17687519	     18.80002363	     36.05276862	     44.23419186	      0.00000000	      0.00000000
